Coordinates
version=1
nRows=8
nColumns=63
inDegrees=yes

Units are S.I. units (second, meters, Newtons, ...)
If the header above contains a line with 'inDegrees', this indicates whether rotational values are in degrees (yes) or radians (no).

endheader
time	pelvis_tilt	pelvis_list	pelvis_rotation	pelvis_tx	pelvis_ty	pelvis_tz	hip_flexion_r	hip_adduction_r	hip_rotation_r	knee_angle_r	knee_angle_r_beta	ankle_angle_r	subtalar_angle_r	mtp_angle_r	hip_flexion_l	hip_adduction_l	hip_rotation_l	knee_angle_l	knee_angle_l_beta	ankle_angle_l	subtalar_angle_l	mtp_angle_l	L5_S1_Flex_Ext	L5_S1_Lat_Bending	L5_S1_axial_rotation	L4_L5_Flex_Ext	L4_L5_Lat_Bending	L4_L5_axial_rotation	L3_L4_Flex_Ext	L3_L4_Lat_Bending	L3_L4_axial_rotation	L2_L3_Flex_Ext	L2_L3_Lat_Bending	L2_L3_axial_rotation	L1_L2_Flex_Ext	L1_L2_Lat_Bending	L1_L2_axial_rotation	L1_T12_Flex_Ext	L1_T12_Lat_Bending	L1_T12_axial_rotation	Abs_r3	Abs_r2	Abs_r1	Abs_t1	Abs_t2	neck_flexion	neck_bending	neck_rotation	arm_flex_r	arm_add_r	arm_rot_r	elbow_flex_r	pro_sup_r	wrist_flex_r	wrist_dev_r	arm_flex_l	arm_add_l	arm_rot_l	elbow_flex_l	pro_sup_l	wrist_flex_l	wrist_dev_l
      1.85000000	     -8.92914036	      5.68459770	    142.83762866	      0.05946998	      0.79442094	      0.65728555	     -1.40356545	    -13.69863263	    -40.53950328	     42.61283361	      0.74373425	     31.51384289	    -19.77387883	      0.00000000	     -7.87321591	      4.05924129	     34.56355805	     12.27988823	      0.21432448	     13.81603971	     18.69960347	      0.00000000	     -0.50606636	      0.46494175	     -0.39090912	     -0.93981584	      0.61837252	     -0.41534094	     -0.83141642	      1.13045936	     -0.41534094	     -0.57838324	      1.13045936	     -0.34204548	     -0.46993322	      0.94810921	     -0.31761366	     -0.28916632	      0.72019477	     -0.29318184	     -3.61478140	      5.25951403	     -2.17411927	      0.00000000	      0.00000000	      6.21668062	    -17.59361306	    -37.90264760	     -0.22012740	    -18.08180620	    169.26532418	      2.71092476	      6.67085915	    -22.96551379	     -6.73262659	      0.46345664	    -15.26715507	    119.91205086	      1.75759376	      7.17590882	    -12.54814900	    -10.70746718
      1.86666667	     -8.69530558	      6.20526250	    142.10303150	      0.05987396	      0.79481085	      0.65586735	     -0.68775626	    -12.84366873	    -38.28370393	     42.83276145	      0.74757271	     32.20106775	    -19.76615575	      0.00000000	     -8.05946783	      3.55191134	     33.89612971	     12.36018148	      0.21572586	     14.05734688	     18.64353783	      0.00000000	     -0.51975720	      0.51608484	     -0.36722776	     -0.96524110	      0.68639284	     -0.39017949	     -0.85390911	      1.25480869	     -0.39017949	     -0.59403051	      1.25480869	     -0.32132429	     -0.48264654	      1.05240021	     -0.29837255	     -0.29698927	      0.79941542	     -0.27542082	     -3.71257373	      5.83805498	     -2.04241061	      0.00000000	      0.00000000	      5.86940092	    -18.09799954	    -37.67039590	      0.05485563	    -18.09651880	    169.14161637	      2.92709819	      6.62037395	    -22.75773765	     -6.56737312	      0.29354026	    -15.08634848	    119.07792271	      1.82096758	      6.28751784	    -12.17751651	    -12.09406875
      1.88333333	     -8.39239661	      6.61117921	    140.70520963	      0.06083797	      0.79498279	      0.65382025	      0.38954539	    -12.10279002	    -35.38095914	     43.23238124	      0.75454740	     33.10560644	    -19.76276960	      0.00000000	     -8.23596741	      3.13125174	     32.58541402	     12.25512961	      0.21389236	     14.24047057	     18.61263739	      0.00000000	     -0.51983448	      0.55909193	     -0.21971672	     -0.96538461	      0.74359227	     -0.23344901	     -0.85403606	      1.35937612	     -0.23344901	     -0.59411882	      1.35937612	     -0.19225213	     -0.48271830	      1.14010027	     -0.17851983	     -0.29703342	      0.86603340	     -0.16478754	     -3.71312569	      6.32455974	     -1.22199846	      0.00000000	      0.00000000	      5.48344677	    -18.64009087	    -37.31892603	      0.15782950	    -18.07450904	    168.83998277	      3.01269545	      6.33501756	    -22.72743125	     -6.33846485	      0.22464685	    -14.90607186	    118.50041965	      1.85191751	      5.38773741	    -12.15373122	    -13.28367502
      1.90000000	     -8.04964664	      7.05005993	    139.42014117	      0.06145764	      0.79525893	      0.65166400	      1.22751381	    -11.36289747	    -32.99131070	     43.51535641	      0.75948624	     33.99613540	    -19.76285295	      0.00000000	     -8.48255136	      2.62413972	     31.33924039	     12.10327144	      0.21124194	     14.41569502	     18.56150543	      0.00000000	     -0.51457800	      0.60786583	     -0.08822544	     -0.95562281	      0.80846155	     -0.09373953	     -0.84540020	      1.47796498	     -0.09373953	     -0.58811120	      1.47796498	     -0.07719726	     -0.47783714	      1.23956000	     -0.07168317	     -0.29402987	      0.94158417	     -0.06616908	     -3.67557923	      6.87629985	     -0.49068342	      0.00000000	      0.00000000	      5.08949396	    -19.17834743	    -37.03851040	      0.06449898	    -18.05930899	    168.24026073	      2.99690366	      5.88299606	    -22.91456897	     -5.92112592	      0.22612727	    -14.68487889	    118.29197559	      1.78825681	      4.64808926	    -12.18065712	    -14.17888487
      1.91666667	     -7.95063562	      7.40093317	    139.13469422	      0.06126638	      0.79573308	      0.65020237	      1.40804638	    -10.99883114	    -32.10741309	     43.70365178	      0.76277262	     34.89705935	    -19.76118695	      0.00000000	     -8.78363291	      2.24212202	     31.03695946	     12.11584452	      0.21146138	     14.50161679	     18.50340579	      0.00000000	     -0.52241045	      0.63104333	     -0.15661590	     -0.97016845	      0.83928762	     -0.16640439	     -0.85826813	      1.53431874	     -0.16640439	     -0.59706291	      1.53431874	     -0.13703891	     -0.48511035	      1.28682355	     -0.12725042	     -0.29850533	      0.97748611	     -0.11746192	     -3.73152561	      7.13848831	     -0.87105064	      0.00000000	      0.00000000	      4.66896281	    -19.50855867	    -36.73876885	     -0.06848256	    -17.95126902	    167.84836657	      2.71239113	      5.58805460	    -23.10678864	     -5.58328367	      0.26409105	    -14.53825116	    118.30140107	      1.61092963	      4.48397381	    -12.24604628	    -14.52992330
      1.93333333	     -7.41071610	      7.69309090	    136.62212273	      0.06253999	      0.79584086	      0.64721065	      2.49549189	    -10.41350054	    -29.29248221	     44.01788404	      0.76825701	     35.46701370	    -19.77250594	      0.00000000	     -8.99551070	      1.86043314	     28.55046635	     11.70700550	      0.20432579	     14.57865525	     18.48958048	      0.00000000	     -0.49442412	      0.68550916	      0.22349805	     -0.91819503	      0.91172719	      0.23746668	     -0.81228939	      1.66674698	      0.23746668	     -0.56507733	      1.66674698	      0.19556079	     -0.45912224	      1.39789029	      0.18159217	     -0.28251394	      1.06185369	      0.16762354	     -3.53162204	      7.75461676	      1.24302910	      0.00000000	      0.00000000	      4.11846044	    -19.95843872	    -36.73597137	     -0.62298278	    -18.08765442	    165.52028029	      2.31590839	      5.51837496	    -24.01196190	     -5.46039092	      0.34201603	    -14.15414542	    118.77206811	      1.43193617	      3.63605819	    -12.71378354	    -15.24093603
      1.95000000	     -7.17919360	      7.88295069	    135.32629768	      0.06302382	      0.79609996	      0.64514232	      2.82863696	    -10.17838063	    -28.09093789	     44.17660291	      0.77102717	     35.72894249	    -19.77801541	      0.00000000	     -9.23097564	      1.65060008	     27.29373964	     11.52575850	      0.20116243	     14.58077169	     18.47116493	      0.00000000	     -0.48802977	      0.70711322	      0.33458011	     -0.90632009	      0.94046058	      0.35549136	     -0.80178411	      1.71927508	      0.35549136	     -0.55776922	      1.71927508	      0.29275759	     -0.45318444	      1.44194528	      0.27184634	     -0.27886021	      1.09531838	      0.25093508	     -3.48594785	      7.99900616	      1.86083419	      0.00000000	      0.00000000	      3.70627128	    -20.04015769	    -36.32689212	     -0.98533994	    -18.14529114	    162.53769663	      1.82079143	      6.17238877	    -24.65515963	     -5.95346807	      0.26423613	    -13.97205221	    118.98405500	      1.22650915	      3.23400535	    -13.09627487	    -15.61155016
      1.96666667	     -7.09543192	      7.89474388	    134.18571822	      0.06372057	      0.79621065	      0.64301546	      3.02105862	    -10.18690208	    -27.32194944	     44.36046654	      0.77423620	     35.60711647	    -19.78263353	      0.00000000	     -9.43046040	      1.64525065	     26.24013225	     11.35223259	      0.19813384	     14.52012944	     18.41066241	      0.00000000	     -0.48744600	      0.70005973	      0.36158725	     -0.90523596	      0.93107944	      0.38418646	     -0.80082503	      1.70212522	      0.38418646	     -0.55710203	      1.70212522	      0.31638885	     -0.45264235	      1.42756180	      0.29378964	     -0.27852664	      1.08439252	      0.27119044	     -3.48177802	      7.91921566	      2.01103984	      0.00000000	      0.00000000	      3.48839668	    -20.09391818	    -35.47414312	     -1.13564846	    -18.13158506	    158.58021530	      1.35530339	      7.28275557	    -24.92538923	     -7.15914095	     -0.07160825	    -13.98269856	    118.65809946	      1.04291118	      3.01884122	    -13.51114895	    -15.89991873
